# xmcd
# Track frame offsets:
# 150
# 3802
# 22085
# 38670
# 64992
# 85287
# 110747
# 132367
# 154382
# 172045
# 190890
# 213420
#
# Disc length: 3142 seconds
# Revision: 7
# Processed by: cddbd v1.5.2PL0 Copyright (c) Steve Scherf et al.
# Submitted via: VisiTrax 2.10.3.257 - For more info visit www.synapsa.com
#
DISCID=a70c440c
DTITLE=Raitt, Bonnie - Bonnie Raitt and Friends
DYEAR=2006
DGENRE=Blues
TTITLE0=Introduction
TTITLE1=Unnecessarily Mercenary (featuring Jon Cleary)
TTITLE2=I Will Not Be Broken
TTITLE3=God Was In The Water
TTITLE4=Gnawin' On It
TTITLE5=You (featuring Alison Krauss)
TTITLE6=Love Letter (featuring Keb' Mo')
TTITLE7=Two Lights In The Nighttime (featuring Ben Harper)
TTITLE8=Well, Well, Well (featuring Ben Harper)
TTITLE9=Something To Talk About
TTITLE10=I Don't Want Anything To Change (featuring Norah Jones)
TTITLE11=Love Sneakin' Up On You (featuring All Special Guests)
EXTD=VH1 Classic Decades Rock Live! Presents BONNIE RAITT AND FRIENDS Tape
EXTD=d on September 30, 2005 at Trump Taj Mahal, Atlantic City, NJ. The Ban
EXTD=d: Bonnie Raitt - Vocals, Slide and Acoustic Guitars, James "Hutch" Hu
EXTD=tchinson - Bass and Vocals, Ricky Fataar - Drums and Vocals, George Ma
EXTD=rinelli - Guitar and Vocals, Jon Cleary - Keyboards, Percussion and Vo
EXTD=cals. Featuring: Norah Jones - Vocals and Wurlitzer Electric Piano, Be
EXTD=n Harper - Vocals and Lap Slide Guitar, Alison Krauss - Vocals and Fid
EXTD=dle, Keb' Mo' - Vocals and Electric Guitar. Project Producer: Kathy Ka
EXTD=ne. Executive Producers: Barry Summers, Eric Sherman and Bonnie Raitt
EXTD=Presented by World Productions, VH1 Classic and Capitol Records. Sup
EXTD=ervising Producer: Barry Ehrmann Associate Producers: Annie Heller-Gut
EXTD=willig and Rick Camino. Post Production Facility: Threshold Sound and Vi
EXTD=sion. Video Editor: Marc Schrobilgen. Assistant Editors: Hannah Mayber
EXTD=y and Carmen Del Toro. Music Mixed by Peter A. Barker. Mastered by Jef
EXTD=f King. DVD Coordinators: James Cerda and Jacques Lambert, Crossbar Ente
EXTD=rtainment. DVD Authoring and Encoding by Jennifer Ruddy. CAPITOL CDP 094
EXTD=6 3 70588 2 4.
EXTT0=
EXTT1=
EXTT2=
EXTT3=
EXTT4=
EXTT5=
EXTT6=
EXTT7=
EXTT8=
EXTT9=
EXTT10=
EXTT11=
PLAYORDER=
